Coordinates
version=1
nRows=14
nColumns=40
inDegrees=yes

Units are S.I. units (second, meters, Newtons, ...)
Angles are in degrees.

endheader
time	pelvis_tilt	pelvis_list	pelvis_rotation	pelvis_tx	pelvis_ty	pelvis_tz	hip_flexion_r	hip_adduction_r	hip_rotation_r	knee_angle_r	knee_angle_r_beta	ankle_angle_r	subtalar_angle_r	mtp_angle_r	hip_flexion_l	hip_adduction_l	hip_rotation_l	knee_angle_l	knee_angle_l_beta	ankle_angle_l	subtalar_angle_l	mtp_angle_l	lumbar_extension	lumbar_bending	lumbar_rotation	arm_flex_r	arm_add_r	arm_rot_r	elbow_flex_r	pro_sup_r	wrist_flex_r	wrist_dev_r	arm_flex_l	arm_add_l	arm_rot_l	elbow_flex_l	pro_sup_l	wrist_flex_l	wrist_dev_l
     48.21600000	     -3.28511362	     -4.23485754	      4.32049287	      1.07040417	      0.90649167	      0.57110048	     16.11351371	      5.89590790	     -9.62746622	     33.04342888	     33.04342888	     20.98412474	    -10.53738766	      0.26442856	     35.83149325	    -15.71569619	      5.43311733	     69.13609354	     69.13609354	     11.34790831	    -18.51034002	     11.33380774	    -11.47246382	      6.23723706	      1.53008765	     32.78773106	    -18.99518460	     -4.97863674	     67.31525518	     45.12808210	      0.00000000	      0.00000000	    -16.50510150	     -8.71016265	     22.20650438	     30.75038407	     42.79774531	      0.00000000	      0.00000000
     48.23700000	     -3.33164141	     -4.18474376	      5.03477023	      1.06875913	      0.90632126	      0.57040298	     15.91543129	      5.78648538	     -9.98655368	     32.90913536	     32.90913536	     21.09475703	    -10.91284806	      0.18584094	     36.25236974	    -15.42548182	      5.53928589	     66.40723566	     66.40723566	     10.72431315	    -18.56021818	      9.99379015	    -11.39576418	      6.27933552	      1.64744717	     35.56290527	    -19.02493111	     -4.40969011	     66.90124927	     45.15883855	      0.00000000	      0.00000000	    -18.41084528	     -9.60732174	     26.58121145	     33.63754210	     42.32285602	      0.00000000	      0.00000000
     48.25800000	     -3.49351794	     -4.07295318	      5.79067862	      1.06698243	      0.90668959	      0.56930433	     15.70296178	      5.58195755	    -10.38787705	     32.51404527	     32.51404527	     21.12146724	    -11.20443411	      0.28864914	     36.57698032	    -14.93663987	      5.57843379	     63.03855368	     63.03855368	     10.61264944	    -18.41674848	     10.32869094	    -11.27737713	      6.25492825	      2.19846388	     37.61564435	    -19.43492988	     -4.66015424	     67.72694227	     45.15114496	      0.00000000	      0.00000000	    -19.26572177	     -9.29751158	     26.93174081	     33.52895243	     42.28311594	      0.00000000	      0.00000000
     48.27900000	     -3.54602837	     -3.95493404	      6.60750000	      1.06521911	      0.90776623	      0.56796706	     15.19821949	      5.37412049	    -10.87264743	     31.79347935	     31.79347935	     20.88488155	    -11.44226584	     -0.00552544	     36.38352833	    -14.47461327	      5.41201981	     58.73840950	     58.73840950	      9.28045634	    -18.46163865	      7.64308121	    -11.30508321	      6.23753594	      2.29428095	     39.80659059	    -19.44721084	     -4.62221424	     68.95314791	     45.14295776	      0.00000000	      0.00000000	    -20.25627165	     -9.85063146	     30.53074368	     34.92793311	     42.04956849	      0.00000000	      0.00000000
     48.30000000	     -3.79482450	     -3.81253311	      7.42519652	      1.06326525	      0.90915406	      0.56625860	     14.82901509	      5.09469199	    -11.40025588	     30.92638159	     30.92638159	     20.68542747	    -11.54355237	      0.21047121	     36.24558800	    -13.79361685	      5.26677358	     54.13297622	     54.13297622	      8.92293700	    -18.12142735	      8.14104291	    -11.14848198	      6.11624613	      2.54880403	     41.82256777	    -19.74380195	     -4.79328141	     69.85483480	     45.13071498	      0.00000000	      0.00000000	    -20.85340381	     -9.59966015	     30.91495129	     34.90290244	     42.02572150	      0.00000000	      0.00000000
     48.32100000	     -4.16165726	     -3.68334604	      8.22719393	      1.06120793	      0.91066212	      0.56433916	     14.51468263	      4.79391612	    -11.97954273	     29.92636706	     29.92636706	     20.42851407	    -11.49278149	      0.41447226	     36.00631648	    -13.07838104	      5.02684848	     49.17956082	     49.17956082	      8.45981166	    -17.40478816	      8.50884493	    -10.87472913	      5.98135521	      2.73080947	     43.84831001	    -20.06673711	     -4.91227358	     70.76737675	     45.11584921	      0.00000000	      0.00000000	    -21.32308836	     -9.38079175	     31.23502788	     34.93868488	     42.00411167	      0.00000000	      0.00000000
     48.34200000	     -4.56916652	     -3.58384727	      9.01898517	      1.05915511	      0.91229980	      0.56221255	     14.17631905	      4.50305498	    -12.63101716	     28.80195199	     28.80195199	     20.13581338	    -11.32552429	      0.61339688	     35.60831808	    -12.36499762	      4.68811731	     44.02552303	     44.02552303	      7.94728241	    -16.25206999	      8.85391418	    -10.58825798	      5.83585763	      2.86320410	     45.82394311	    -20.39416968	     -4.99545555	     71.67873399	     45.09933373	      0.00000000	      0.00000000	    -21.66645952	     -9.17643762	     31.51077671	     34.99826675	     41.98614400	      0.00000000	      0.00000000
     48.36300000	     -4.74816006	     -3.50477399	      9.74815059	      1.05740886	      0.91437019	      0.55987330	     13.46427112	      4.26469942	    -13.34166005	     27.50344082	     27.50344082	     19.80584486	    -10.83819036	      0.71806994	     34.72274318	    -11.70391787	      4.26053169	     38.75167530	     38.75167530	      7.30435217	    -14.72135001	      8.90060575	    -10.53392736	      5.74071276	      2.92042591	     47.58882599	    -20.58949188	     -4.95740653	     72.71133386	     45.07466603	      0.00000000	      0.00000000	    -21.97679947	     -9.02131445	     31.87387992	     35.03927231	     41.96692331	      0.00000000	      0.00000000
     48.38400000	     -4.99464997	     -3.54356643	     10.42368973	      1.05579741	      0.91599802	      0.55748676	     12.75509234	      4.13658497	    -14.20999886	     26.02216483	     26.02216483	     19.04700022	    -10.28700006	     -0.57370038	     33.67881784	    -11.18596879	      3.72226350	     33.26839960	     33.26839960	      4.83325231	    -13.41235646	      4.26712138	    -10.42118552	      5.74656407	      3.36406090	     48.91521996	    -21.42349578	     -4.86538879	     74.72047986	     45.05271035	      0.00000000	      0.00000000	    -21.81319544	     -9.34554127	     34.41107731	     35.28341385	     42.00465661	      0.00000000	      0.00000000
     48.40500000	     -5.29705917	     -3.55034039	     11.00332493	      1.05430001	      0.91736171	      0.55500692	     12.20453479	      4.01389694	    -14.78207844	     24.78697369	     24.78697369	     18.80148376	     -9.85503690	     -0.37981729	     32.92281926	    -10.60477548	      3.20508307	     28.79945222	     28.79945222	      4.65542525	    -10.98149421	      5.16983932	    -10.19876540	      5.63512275	      3.46488390	     50.46504174	    -21.59146914	     -4.97724644	     75.42918305	     45.04373485	      0.00000000	      0.00000000	    -21.91750038	     -9.23442377	     34.56302957	     35.31720107	     42.01738792	      0.00000000	      0.00000000
     48.42600000	     -5.57914232	     -3.64020194	     11.49402274	      1.05303931	      0.91835553	      0.55250989	     11.63581182	      3.99684334	    -15.33634883	     23.56187325	     23.56187325	     18.59550320	     -9.32000803	     -0.26326657	     32.26572221	    -10.14004547	      2.68974123	     25.01902088	     25.01902088	      4.58100278	     -8.46592077	      6.01555440	     -9.97231089	      5.57902091	      3.56638485	     51.83196460	    -21.67059029	     -5.07324699	     76.18077343	     45.03153930	      0.00000000	      0.00000000	    -21.91160691	     -9.14048120	     34.67223681	     35.32866855	     42.03219908	      0.00000000	      0.00000000
     48.44700000	     -6.00357693	     -3.93963990	     11.98559544	      1.05169908	      0.91844884	      0.54986641	     11.46055217	      4.12951877	    -15.88442105	     22.70665090	     22.70665090	     18.46845520	     -9.02622905	     -0.19138380	     32.13349013	     -9.77841555	      2.57037695	     22.24371433	     22.24371433	      4.45319892	     -6.44418917	      6.63041778	     -9.55946915	      5.76413379	      3.64083145	     53.28504025	    -21.88732231	     -5.25708372	     76.84264389	     45.02423960	      0.00000000	      0.00000000	    -21.87046370	     -9.08574040	     34.71621509	     35.34191662	     42.04222804	      0.00000000	      0.00000000
     48.46800000	     -5.91944890	     -3.98858898	     12.27422275	      1.05138429	      0.91939411	      0.54737269	     10.24747109	      4.22466905	    -16.39357211	     21.11556680	     21.11556680	     18.06378310	     -8.11503547	     -1.16554023	     31.39652362	     -9.62680228	      1.42889814	     20.22831769	     20.22831769	      5.46258140	     -3.02058054	      8.61534625	     -9.71884085	      5.64408128	      4.08835223	     53.50776998	    -21.93354721	     -6.04019131	     78.75847229	     45.02178733	      0.00000000	      0.00000000	    -21.45763231	     -9.09114445	     35.19288546	     34.83753191	     42.23727600	      0.00000000	      0.00000000
     48.48900000	     -6.16276720	     -4.16021927	     12.49511113	      1.05081838	      0.91925806	      0.54473113	      9.81852314	      4.32916539	    -16.59441192	     20.29478875	     20.29478875	     18.07996413	     -7.80400419	     -1.10407675	     31.09419539	     -9.32033448	      1.30709156	     18.65525177	     18.65525177	      5.34392642	     -1.68695516	      8.77941431	     -9.45932627	      5.61100515	      4.14427523	     54.24081169	    -21.73564512	     -6.10524660	     79.22212914	     45.01515981	      0.00000000	      0.00000000	    -21.31681279	     -9.11294523	     35.22884709	     34.84053442	     42.25844534	      0.00000000	      0.00000000
